<?xml version="1.0" encoding="UTF-8" standalone="no"?>
<svg
   width="1024"
   height="1024"
   viewBox="0 0 1024 1024"
   version="1.1"
   id="svg2"
   sodipodi:docname="pgh_mesh_nobg.svg"
   inkscape:version="1.4 (e7c3feb100, 2024-10-09)"
   xmlns:inkscape="http://www.inkscape.org/namespaces/inkscape"
   xmlns:sodipodi="http://sodipodi.sourceforge.net/DTD/sodipodi-0.dtd"
   xmlns="http://www.w3.org/2000/svg"
   xmlns:svg="http://www.w3.org/2000/svg">
  <defs
     id="defs2" />
  <sodipodi:namedview
     id="namedview2"
     pagecolor="#ffffff"
     bordercolor="#666666"
     borderopacity="1.0"
     inkscape:showpageshadow="2"
     inkscape:pageopacity="0.0"
     inkscape:pagecheckerboard="0"
     inkscape:deskcolor="#d1d1d1"
     inkscape:zoom="1.1582031"
     inkscape:cx="511.13659"
     inkscape:cy="512"
     inkscape:window-width="2560"
     inkscape:window-height="1388"
     inkscape:window-x="0"
     inkscape:window-y="28"
     inkscape:window-maximized="1"
     inkscape:current-layer="svg2" />
  <path
     d="m 573.08,884.55 c -15.89,-3.03 -28.62,-12.35 -33.05,-24.21 -2.27,-6.06 -3.03,-13.78 -1.5,-15.21 0.53,-0.49 7.11,-1.21 14.62,-1.59 l 13.65,-0.69 1.12,3.41 c 1.28,3.87 4.95,7.65 10.08,10.37 2.61,1.38 5.66,1.85 12,1.86 13.68,0.02 21.01,-4.92 21,-14.14 -0.01,-8.8 -4.75,-12.07 -28,-19.32 -23.33,-7.29 -33.59,-14.37 -40.16,-27.7 -3.15,-6.39 -3.34,-7.4 -3.34,-17.31 0,-9.24 0.32,-11.19 2.6,-16.07 5.04,-10.74 13.14,-17.32 26.66,-21.64 15.27,-4.89 37.98,-2.93 51.51,4.44 9.74,5.3 16.93,16.69 17.12,27.15 l 0.11,5.6 -14.63,0.28 -14.64,0.27 -0.63,-3.35 c -1.24,-6.65 -8.27,-11.07 -17.64,-11.1 -9.35,-0.02 -15.91,3.3 -17.9,9.08 -1.06,3.06 -1.2,5.18 -0.5,7.95 1.45,5.83 6.81,9.2 23.49,14.8 25.63,8.6 35.81,14.34 42.31,23.83 10.6,15.49 7.82,38.05 -6.29,50.96 -9.62,8.82 -20.71,12.59 -39.07,13.3 -7.54,0.29 -14.06,-0.05 -18.92,-0.97 z m -316.39,-2.19 c -0.38,-0.38 -0.69,-31.61 -0.69,-69.4 0,-53.76 0.27,-68.94 1.25,-69.74 1.43,-1.17 26,-1.48 32.54,-0.42 l 4.29,0.7 11.32,26 c 17.07,39.18 21.02,47.74 21.98,47.68 0.48,-0.04 1.93,-2.45 3.21,-5.37 1.28,-2.92 8.46,-19.26 15.94,-36.31 7.49,-17.05 14.03,-31.43 14.54,-31.95 1.08,-1.1 29.64,-2.09 33.38,-1.15 l 2.55,0.64 v 70.01 70 l -14.75,-0.27 -14.75,-0.28 -0.26,-41.75 C 367.1,817.79 366.62,799 366.18,799 c -0.72,0 -17.2,33.67 -27.06,55.25 l -3.99,8.75 h -7.49 c -6.91,0 -7.66,-0.21 -9.57,-2.63 -1.14,-1.45 -2.07,-2.98 -2.07,-3.39 0,-0.85 -9.74,-21.38 -20.87,-43.98 l -7.63,-15.5 -0.5,42.5 -0.5,42.5 -14.56,0.28 c -8,0.15 -14.87,-0.04 -15.25,-0.42 z m 170.98,-0.03 C 427.3,881.97 427,850.46 427,812.32 v -69.34 l 45.25,0.26 45.25,0.26 v 13.5 13.5 l -29.25,0.27 -29.25,0.26 v 13.47 13.47 l 24.75,0.26 24.75,0.27 0.28,13.75 c 0.25,12.61 0.13,13.75 -1.5,13.78 -0.98,0.02 -12.24,0.01 -25.03,-0.03 L 459,825.93 v 14.52 14.52 l 29.75,0.27 29.75,0.26 0.32,6.5 c 0.18,3.58 0.03,9.76 -0.33,13.75 l -0.66,7.25 h -44.75 c -24.61,0 -45.05,-0.3 -45.41,-0.67 z m 239.02,0.03 c -0.38,-0.38 -0.69,-31.64 -0.69,-69.47 0,-53.42 0.28,-68.94 1.23,-69.53 1.29,-0.8 28.69,-0.53 30.01,0.29 0.42,0.26 0.76,12.37 0.76,26.91 V 797 h 24.5 24.5 v -26.46 c 0,-25.15 0.1,-26.52 1.93,-27.5 2.06,-1.11 24.03,-1.42 27.83,-0.41 l 2.25,0.61 -0.25,69.63 -0.26,69.63 H 763 747.5 L 747.23,854.25 746.97,826 H 722.5 698.03 l -0.26,28.25 -0.27,28.25 -15.06,0.28 c -8.28,0.15 -15.37,-0.04 -15.75,-0.42 z M 403.04,710.86 c -7.05,-1.17 -15.65,-5.12 -19.91,-9.16 C 378.58,697.39 374,687.62 374,682.25 V 678 h 11.5 c 10.04,0 11.5,0.21 11.5,1.66 0,2.67 4.99,8.44 8.6,9.95 4.44,1.85 14.74,1.78 18.43,-0.13 5.31,-2.74 7.5,-9.85 4.4,-14.27 -2.06,-2.95 -6.48,-5.1 -20.9,-10.13 -13.29,-4.65 -17.21,-6.7 -22.9,-11.99 -6.06,-5.62 -8.61,-12.03 -8.62,-21.64 -0.01,-6.67 0.43,-8.95 2.57,-13.24 5.09,-10.2 15.22,-16.35 30.08,-18.23 8.37,-1.06 20.65,0.59 26.43,3.55 9.74,4.98 15.92,13.78 16.24,23.15 l 0.17,4.82 -11.25,0.28 C 429.34,632.06 429,632 429,629.93 c 0,-3.68 -5.99,-8.66 -11.41,-9.47 -11.49,-1.72 -20,5.3 -16.54,13.65 1.78,4.3 6.63,7.14 20.09,11.75 6.4,2.19 13.51,4.94 15.8,6.11 5.77,2.94 11.82,8.64 14.29,13.46 2.86,5.57 3.51,16.52 1.41,23.74 -4.84,16.64 -25.51,25.68 -49.6,21.69 z M 595,710.61 c -12,-2.68 -20.75,-9.52 -25.7,-20.11 l -2.8,-6 v -41 -41 h 12 12 L 591,641 c 0.46,35.13 0.67,38.83 2.39,42.3 4.9,9.86 22.91,10.39 28.84,0.85 2.23,-3.59 2.28,-4.27 2.77,-42.65 l 0.5,-39 11.72,-0.28 c 11.54,-0.28 11.74,-0.25 12.31,2.04 0.32,1.27 0.44,19.63 0.27,40.78 -0.31,37.81 -0.36,38.56 -2.69,44.38 -1.31,3.25 -4.18,7.87 -6.37,10.25 -9.27,10.06 -28.76,14.72 -45.74,10.94 z m 198.22,-0.13 c -12.65,-2.75 -24.07,-12.16 -28.26,-23.28 -3.37,-8.96 -4.26,-17.32 -3.67,-34.7 0.59,-17.28 2.07,-24.84 6.25,-31.98 3.14,-5.35 10.85,-12.66 16.29,-15.43 13.56,-6.92 35.45,-6.71 47.78,0.45 8.21,4.76 14.87,15.28 16.07,25.38 l 0.6,5.08 h -12.02 -12.01 l -0.62,-3.12 c -0.94,-4.69 -7.25,-10.47 -12.38,-11.34 -9.4,-1.59 -17.04,1.86 -20.95,9.46 -4.22,8.21 -5.57,34.11 -2.34,45.12 1.52,5.19 5.02,9.96 8.99,12.28 4.34,2.54 15.08,2.74 19.55,0.38 5.81,-3.08 9.5,-9.27 9.5,-15.93 V 670 h -10.04 -10.04 l 0.29,-9.25 0.29,-9.25 20.43,-0.27 c 11.62,-0.16 20.83,0.13 21.35,0.65 1.39,1.39 0.85,23.94 -0.7,29.83 -6.05,22.94 -27.92,34.51 -54.36,28.77 z M 65,656 v -54 h 22.79 c 24.47,0 29.84,0.74 38.98,5.39 5.56,2.84 8.14,5.47 11.37,11.61 2.15,4.11 2.36,5.72 2.36,18.5 0,13.24 -0.15,14.33 -2.81,20 -6.1,13.07 -17.66,18.5 -39.37,18.5 H 89 v 17 17 H 77 65 Z m 41.5,-2.1 c 2.2,-0.6 5.23,-2.24 6.73,-3.66 7.73,-7.29 5.09,-22 -4.51,-25.17 -2.69,-0.88 -13.91,-1.6 -18.47,-1.18 C 89.31,623.97 89,627.83 89,639.5 V 655 l 6.75,-0.01 c 3.71,0 8.55,-0.49 10.75,-1.09 z m 51.02,53.85 c -0.28,-1.24 -0.4,-25.42 -0.27,-53.75 l 0.25,-51.5 12.25,-0.28 12.25,-0.28 V 655.97 710 h -11.98 c -11.61,0 -12,-0.07 -12.5,-2.25 z M 224,667.03 V 624 l -12.75,-0.02 c -7.01,0 -13.33,-0.38 -14.04,-0.83 -0.94,-0.6 -1.21,-3.47 -1,-10.73 l 0.29,-9.92 40.28,-0.26 40.29,-0.26 -0.29,10.76 -0.28,10.76 -13.74,0.28 -13.74,0.28 -0.26,42.72 -0.26,42.72 -12.25,0.28 -12.25,0.28 z m 89.67,42.3 C 313.3,708.97 313,689.63 313,666.36 v -42.3 L 299.25,623.78 285.5,623.5 V 613 602.5 h 40.5 40.5 v 10.5 10.5 l -14.25,0.28 -14.25,0.27 V 667.03 710 h -11.83 c -6.51,0 -12.14,-0.3 -12.5,-0.67 z M 470,656 v -54 l 24.75,0.01 c 27.15,0.01 32.03,0.71 40.12,5.72 2.73,1.68 5.8,4.8 7.6,7.72 2.85,4.61 3.03,5.5 3.03,15.05 0,9.27 -0.23,10.49 -2.61,14.09 -1.44,2.17 -4.25,4.83 -6.25,5.9 -2,1.08 -3.64,2.26 -3.64,2.62 0,0.35 1.36,1.21 3.03,1.9 4.15,1.72 11.7,10.37 12.94,14.82 1.67,6 1.22,17.14 -0.86,21.74 -4.03,8.87 -12.32,14.87 -23.91,17.31 -3.07,0.65 -15.59,1.12 -29.75,1.12 H 470 Z m 51.73,29.73 c 2.42,-2.42 2.77,-3.55 2.77,-8.84 0,-5.34 -0.32,-6.34 -2.7,-8.38 C 518.5,665.66 511.17,664 501.95,664 H 495 v 12.58 12.59 l 11.98,-0.34 c 11.56,-0.32 12.08,-0.43 14.75,-3.1 z m -2.65,-44.5 c 3.37,-3.76 3.85,-8.54 1.35,-13.36 -2.2,-4.27 -6.82,-5.87 -16.9,-5.87 H 495 v 11.59 11.59 l 10.58,-0.34 c 10.52,-0.34 10.61,-0.36 13.5,-3.61 z M 670,656.03 V 602 h 21.86 c 12.03,0 24.18,0.44 27.02,0.98 11.89,2.25 21.32,9.15 26.01,19.02 2.29,4.82 2.61,6.74 2.57,15.5 -0.03,8.25 -0.44,10.92 -2.36,15.23 -2.35,5.28 -9.01,12.36 -13.6,14.45 -1.38,0.63 -2.5,1.46 -2.5,1.84 0,0.39 4.72,9.2 10.49,19.59 5.76,10.39 10.49,19.45 10.5,20.14 0.01,0.94 -3.21,1.25 -12.82,1.25 h -12.82 l -10.05,-18.75 -10.06,-18.75 -5.1,-0.3 -5.1,-0.3 -0.27,18.8 -0.27,18.8 -11.75,0.28 -11.75,0.28 z m 46.53,-6.05 c 8.22,-5.08 7.88,-20.13 -0.55,-24.49 -1.7,-0.88 -7.07,-1.81 -12.48,-2.17 L 694,622.7 V 637.35 652 h 9.63 c 7.92,0 10.22,-0.36 12.9,-2.02 z m 152.41,57.77 c -0.07,-2.53 -0.06,-98.71 0.01,-103.03 l 0.05,-2.78 11.75,0.28 11.75,0.28 0.5,21 0.5,21 17.73,0.27 17.73,0.28 0.27,-21.28 0.27,-21.27 h 12 12 v 53.5 53.5 h -12 -12 l -0.27,-21.27 -0.27,-21.28 -17.73,0.28 -17.73,0.27 -0.27,21.25 -0.27,21.25 h -11.98 c -11.74,0 -11.98,-0.05 -12.04,-2.25 z m -804.02,-155 c -0.04,-11.69 -0.23,-22.05 -0.41,-23.03 -0.35,-1.8 16.03,-23.23 31.54,-41.27 14.99,-17.44 34.86,-34.88 53.56,-47.02 20.44,-13.26 38.2,-19.18 64.57,-21.5 50.6,-4.46 94.25,12.75 140.75,55.49 16.38,15.07 42.46,34.63 55.54,41.69 15.12,8.16 33.35,14.37 49.53,16.87 3.58,0.55 14.15,0.97 23.5,0.93 l 17,-0.07 -10.8,-1.9 C 431.52,522.69 412.6,513.16 359,467.03 c -23.03,-19.82 -34.36,-27.69 -55.11,-38.29 -22.64,-11.56 -40.02,-16.25 -65.74,-17.76 -8.61,-0.5 -15.76,-0.93 -15.9,-0.95 -0.14,-0.02 -0.25,-20.05 -0.25,-44.53 0,-43.09 0.06,-44.5 1.9,-44.5 1.22,0 2.9,-1.71 4.66,-4.75 1.52,-2.61 5.46,-8.8 8.76,-13.75 4.86,-7.28 6.21,-10.23 7.1,-15.42 1.45,-8.49 3.17,-8.92 4.09,-1.03 0.61,5.25 1.5,7.28 6.08,13.8 2.96,4.21 7.22,10.66 9.47,14.34 2.73,4.46 4.82,6.79 6.27,7 2.14,0.31 2.17,0.61 2.44,21.56 l 0.27,21.25 7.48,0.12 c 4.11,0.07 8.27,0.19 9.23,0.26 1.48,0.1 1.8,-0.92 2.05,-6.63 l 0.29,-6.75 h 8.41 c 4.62,0 9.55,-0.52 10.95,-1.16 l 2.55,-1.16 v -77.85 -77.85 l 42.25,0.26 42.25,0.26 0.25,111.81 0.26,111.8 4.24,-0.3 4.25,-0.31 0.62,-11 c 0.35,-6.05 0.68,-24.16 0.75,-40.24 0.12,-28.09 0.21,-29.29 2.13,-30.49 1.1,-0.69 2,-1.83 2,-2.54 0,-1.72 4.43,-10.41 8.79,-17.23 1.93,-3.02 5.04,-8.54 6.9,-12.25 1.87,-3.71 3.94,-6.75 4.6,-6.75 0.67,0 2.52,2.36 4.12,5.25 1.6,2.89 5.07,8.87 7.71,13.28 2.63,4.42 5.97,10.61 7.41,13.75 1.44,3.15 3.03,5.78 3.54,5.84 0.51,0.07 1.49,0.19 2.18,0.26 0.94,0.09 1.32,4.96 1.52,19.87 l 0.27,19.75 h 5.47 5.47 l 0.26,-46.75 0.26,-46.75 3.24,-0.31 3.24,-0.31 0.26,-36.69 0.26,-36.69 4.75,-0.3 4.75,-0.31 v -8.32 c 0,-4.58 0.29,-9.77 0.65,-11.55 0.39,-1.96 7.17,-11.94 17.33,-25.53 l 16.7,-22.3 0.68,-21.29 c 0.38,-11.7 0.9,-21.49 1.16,-21.76 1.19,-1.19 1.87,1.56 2.6,10.61 0.43,5.36 0.8,14.88 0.83,21.16 l 0.05,11.41 10.33,13.59 c 5.68,7.47 13.22,17.36 16.75,21.96 l 6.42,8.37 0.33,11.83 0.34,11.83 5.16,0.3 5.17,0.3 0.16,36.33 c 0.09,19.98 0.34,36.51 0.56,36.73 0.42,0.41 4.35,1.24 6.53,1.37 0.99,0.05 1.25,12.88 1.25,60.57 V 402 h 7 7 v 15 15 h 5.5 5.5 V 319.91 207.81 l 2.64,-7.43 c 2.54,-7.16 3.85,-9.23 5.07,-8.01 0.31,0.32 1.85,4.98 3.42,10.35 2.16,7.41 2.85,11.9 2.86,18.53 L 620,230 h 3.43 c 2.56,0 3.6,-0.51 4.07,-2 0.41,-1.3 1.58,-2.04 3.32,-2.12 1.47,-0.06 3.35,-0.18 4.18,-0.27 2.34,-0.25 5,1.31 5,2.93 0,1 1.08,1.46 3.42,1.46 3.67,0 3.52,0.27 5.15,-9.21 0.84,-4.88 3.13,-6.92 4.97,-4.41 0.72,0.99 1.61,3.68 1.96,5.96 1.12,7.24 1.39,7.66 4.83,7.66 2.35,0 3.46,-0.59 4.18,-2.25 0.79,-1.8 1.93,-2.31 5.74,-2.55 4.26,-0.28 4.86,-0.05 5.91,2.25 0.83,1.81 1.94,2.55 3.85,2.55 h 2.7 l 0.69,-11.68 c 0.92,-15.3 5.19,-31.31 7.63,-28.61 0.4,0.43 1.68,3.6 2.85,7.04 2.1,6.2 2.12,7.19 2.23,102 0.07,52.66 0.4,101.59 0.75,108.72 l 0.64,12.97 4.13,0.82 c 2.27,0.44 6.99,0.46 10.5,0.02 l 6.37,-0.78 0.27,-21.25 0.27,-21.25 H 729.52 740 V 329.5 281 h 3.45 3.46 l 0.29,-6.74 0.3,-6.73 4,-0.72 c 2.2,-0.4 11.54,-0.45 20.75,-0.11 l 16.75,0.61 v 6.84 6.85 h 3.98 c 3.38,0 4.07,0.37 4.59,2.43 0.34,1.33 0.33,3.29 0,4.36 -1.07,3.36 0.36,5.21 4.04,5.21 1.86,0 3.49,0.11 3.62,0.25 0.12,0.14 0.46,22.52 0.75,49.75 l 0.52,49.5 3,0.16 c 1.65,0.09 3.56,0.2 4.25,0.25 0.9,0.06 1.25,2.61 1.25,9.09 0,7.88 -0.22,9.01 -1.75,9.07 -0.96,0.03 -4.67,0.24 -8.25,0.45 -3.58,0.21 -11.22,0.65 -16.98,0.98 -23.47,1.33 -50.05,9.82 -72.29,23.1 -10.1,6.02 -25.44,17.16 -37.23,27.01 -26.26,21.95 -51.85,40.77 -65.5,48.18 -17.58,9.54 -43.72,17.54 -75.5,23.11 -3.95,0.69 -1.74,0.9 10.58,0.99 24.46,0.17 41.54,-3.64 64.64,-14.42 15.39,-7.18 36.16,-21.78 63.28,-44.45 38.92,-32.53 62.01,-45.47 93.01,-52.11 13.7,-2.94 42.91,-3.7 56.49,-1.47 23.81,3.9 41.26,11.13 59.5,24.66 10.84,8.04 29.12,25.09 39.39,36.74 8.08,9.17 29.71,36.33 33.32,41.84 1.2,1.83 1.48,6.3 1.45,23.04 -0.03,11.43 -0.07,21.81 -0.1,23.07 -0.06,2.22 -0.31,2.28 -8.31,2 l -8.25,-0.29 0.11,-3.5 c 0.06,-1.92 0.23,-8.45 0.38,-14.5 l 0.26,-11 -157.38,-0.23 c -86.55,-0.12 -158.43,0.05 -159.73,0.4 l -2.35,0.62 0.35,14.1 0.36,14.11 -11.59,0.28 -11.6,0.28 -0.64,-14.18 c -0.36,-7.81 -0.87,-14.41 -1.14,-14.69 -1.63,-1.62 -111.82,-2.63 -157.28,-1.43 L 429,544.11 V 559.06 574 h -13 -13 v -14.37 -14.37 l -3.75,-0.62 c -2.06,-0.34 -74.55,-0.62 -161.07,-0.63 L 80.85,544 l 0.72,15 0.71,15 H 73.64 65 Z m 53.83,-24.38 2.25,-0.6 -0.03,-22.64 -0.02,-22.63 -8.84,9.06 C 104.61,499.24 83,526.6 83,528.41 c 0,0.78 32.85,0.74 35.75,-0.04 z m 71.13,0.01 3.12,-0.63 V 482.9 438.05 l -7.94,2.93 c -4.37,1.61 -10.15,4.04 -12.85,5.41 l -4.9,2.49 -0.65,8.31 c -0.86,10.97 -0.85,70.29 0.01,71.14 0.84,0.85 19.03,0.88 23.21,0.05 z M 226,480.29 V 432.7 l -9.25,0.66 c -5.09,0.36 -10.94,1.12 -13,1.69 l -3.75,1.04 v 45.87 c 0,29.1 0.36,46 0.98,46.21 0.54,0.18 6.39,0.19 13,0.02 L 226,527.88 Z m 628.82,48.05 5.33,-0.64 -0.53,-39.1 -0.54,-39.1 -3.79,-2.24 c -4.22,-2.49 -16.79,-7.89 -19.59,-8.42 -1.71,-0.32 -1.83,2.02 -2.4,44.01 -0.5,37.32 -0.37,44.49 0.81,45.24 1.63,1.03 13.07,1.17 20.71,0.25 z m 85.58,-0.59 c -5.14,-9 -22.79,-31.85 -30.16,-39.06 l -4.92,-4.8 -0.66,14.3 c -0.36,7.87 -0.65,17.77 -0.66,22 v 7.68 l 3.25,0.41 c 1.79,0.22 10.14,0.47 18.56,0.56 12,0.13 15.15,-0.11 14.59,-1.09 z M 160.66,508.34 C 160.3,497.53 160,480.65 160,470.84 v -17.85 l -6.07,3.76 c -3.33,2.06 -10.53,7.3 -16,11.63 l -9.93,7.88 0.01,22.12 c 0.01,12.17 0.29,23.81 0.63,25.87 l 0.62,3.75 h 16.03 16.03 z m 99.1,-26.58 -0.26,-46.24 -6.5,-1.22 c -3.57,-0.66 -9.76,-1.23 -13.75,-1.25 L 232,433 v 47.5 47.5 h 14.01 14.01 z m 33.24,6.36 c 0,-30.95 -0.28,-40.11 -1.27,-40.93 -1.85,-1.53 -18.22,-8 -22.1,-8.73 l -3.32,-0.62 -0.65,9.23 C 265.3,452.15 265,472.44 265,492.15 V 528 h 14 14 z m 33.66,30.13 c -0.36,-5.36 -0.65,-18.98 -0.65,-30.25 l -0.01,-20.5 -9.75,-6.1 c -5.36,-3.36 -11.44,-7.11 -13.5,-8.33 L 299,450.84 V 489.42 528 h 14.15 14.15 z M 357,510.54 v -17.47 l -10.25,-8.61 c -5.64,-4.74 -11.04,-9.05 -12,-9.57 -1.65,-0.9 -1.75,0.63 -1.75,26.07 V 528 h 12 12 z m 39.11,13.21 c -3.47,-2.34 -11.96,-8.42 -18.85,-13.53 -6.9,-5.1 -12.64,-9.15 -12.77,-9 -0.13,0.16 -0.54,6.24 -0.92,13.53 l -0.7,13.25 h 19.78 19.78 z M 666,515 c 0,-7.15 -0.24,-13 -0.54,-13 -0.29,0 -5.13,3.54 -10.75,7.87 -5.61,4.32 -13.81,10.17 -18.21,12.98 l -8,5.11 18.75,0.02 L 666,528 Z m 31,-12.61 c 0,-22.07 -0.2,-25.53 -1.46,-25.04 -0.81,0.31 -6.43,4.52 -12.49,9.35 l -11.02,8.8 -0.02,16.25 L 672,528 h 12.5 12.5 z m 32,-11.45 v -37.05 l -3.14,1.8 c -1.72,1 -7.46,4.76 -12.75,8.37 l -9.61,6.56 -0.27,28.69 -0.26,28.69 H 715.98 729 Z m 33,-7.44 c 0,-24.48 -0.15,-44.5 -0.34,-44.5 -1.22,0 -13.19,4.55 -18.87,7.17 L 736,449.3 v 13.69 c 0,7.53 -0.3,25.23 -0.66,39.35 L 734.68,528 H 748.34 762 Z m 31.76,-2.72 -0.26,-47.21 -5,0.26 c -5,0.26 -15.45,1.82 -18.75,2.79 -1.63,0.48 -1.75,3.54 -1.75,45.95 V 528 h 13.01 13.01 z m 33.71,38.97 c 0.35,-4.54 0.5,-25.11 0.33,-45.73 l -0.3,-37.47 -5.04,-1.12 c -2.77,-0.62 -8.96,-1.44 -13.75,-1.83 L 800,432.9 V 480.45 528 h 13.41 13.41 z m 69.92,-17 0.71,-25.25 -5.83,-5.5 c -5.15,-4.87 -23.16,-18 -24.69,-18 -0.32,0 -0.58,16.65 -0.58,37 v 37 h 14.84 14.84 z"
     fill="#50a266"
     id="path2" />
</svg>
